<svg width="131" height="160" viewBox="0 0 131 160" fill="none" xmlns="http://www.w3.org/2000/svg">
<path d="M120.095 55.8401H115.958C115.571 49.5606 114.039 43.4999 111.387 37.8022C110.983 36.9299 109.946 36.5523 109.072 36.9563C108.198 37.3611 107.819 38.3959 108.225 39.2682C110.661 44.5047 112.082 50.0717 112.464 55.8401H32.6055C31.6426 55.8401 30.8624 56.6189 30.8624 57.5802C30.8624 58.5415 31.6426 59.3203 32.6055 59.3203H120.095C120.977 59.3203 121.694 60.0364 121.694 60.9169V63.0409C121.694 63.9214 120.977 64.6376 120.095 64.6376H11.0856C10.2036 64.6376 9.48708 63.9214 9.48708 63.0409V60.9169C9.48708 60.0364 10.2036 59.3203 11.0856 59.3203H24.4793C25.4422 59.3203 26.2233 58.5415 26.2233 57.5802C26.2233 56.6189 25.4422 55.8401 24.4793 55.8401H18.7172C19.4855 44.2787 24.452 33.5233 32.8228 25.3885C40.8899 17.5495 51.3139 12.9348 62.4544 12.2032C62.4608 12.2032 62.4671 12.2041 62.4735 12.2032C62.9481 12.1723 63.4173 12.1487 63.8811 12.1315C63.9738 12.1287 64.0656 12.1242 64.1584 12.1215C64.3239 12.116 64.4885 12.1124 64.6512 12.1088C64.964 12.1033 65.2768 12.0979 65.5905 12.0979C66.007 12.0979 66.4234 12.106 66.8389 12.1169C66.9617 12.1206 67.0835 12.1242 67.2072 12.1278C67.5273 12.1387 67.8464 12.1551 68.1656 12.1723C68.3347 12.1814 68.5038 12.1905 68.6739 12.2014C82.9868 13.1399 96.155 20.5704 104.349 32.4849C104.894 33.2764 105.98 33.4788 106.774 32.9342C107.567 32.3905 107.769 31.3067 107.224 30.5143C99.1602 18.7895 86.6094 11.1103 72.7374 9.12969C73.6067 7.78265 74.095 6.19689 74.095 4.5358C74.095 3.58997 73.6722 1.84627 70.8407 0.806041C69.4268 0.286834 67.5618 0 65.5905 0C63.6183 0 61.7533 0.286834 60.3394 0.806041C57.5079 1.84627 57.086 3.58997 57.086 4.5358C57.086 6.19236 57.5725 7.77539 58.4363 9.1197C47.9041 10.6074 38.1357 15.3674 30.3905 22.8941C21.3423 31.687 15.9966 43.3311 15.2228 55.8392H11.0856C8.28138 55.8401 6 58.1176 6 60.9169V63.0409C6 65.8412 8.28138 68.1186 11.0856 68.1186H29.8668C28.9293 68.7595 28.0309 69.4784 27.1898 70.2763L27.1553 70.3089C27.1016 70.3588 27.0507 70.4124 27.0043 70.4696L18.7272 80.5033C17.6888 79.8453 16.4594 79.6056 15.2465 79.838C13.9817 80.0795 12.8878 80.7984 12.1658 81.8622L8.9106 86.654C7.42211 88.8461 7.99678 91.8406 10.1909 93.3283L32.4655 108.434C33.2729 108.982 34.2058 109.267 35.1615 109.267C35.4652 109.267 35.7716 109.238 36.0771 109.18C37.341 108.938 38.4349 108.219 39.1569 107.155L42.4121 102.364C43.9006 100.171 43.3268 97.177 41.1327 95.6892L41.0054 95.603C42.5557 93.8466 44.6225 92.5876 46.8712 92.0684C51.6094 90.9728 57.1851 91.6781 60.9668 92.3035C65.6451 93.0769 70.5588 92.8127 75.177 91.5392L81.5965 89.7683C85.8729 88.5883 89.8082 86.6013 93.2944 83.8619C93.3208 83.841 93.3462 83.8201 93.3717 83.7974L104.393 74.0532C106.272 72.6181 106.681 70.1328 106.033 68.1186H120.095C122.9 68.1186 125.181 65.8412 125.181 63.0419V60.9169C125.181 58.1176 122.9 55.8401 120.095 55.8401ZM65.5905 3.48104C68.5266 3.48104 70.286 4.2063 70.6079 4.60932C70.5843 6.26043 69.7477 7.78356 68.3865 8.69671C68.0437 8.67856 67.7055 8.66403 67.3681 8.65133C67.2545 8.64769 67.1408 8.64225 67.0272 8.63953C66.5407 8.625 66.0606 8.61774 65.5905 8.61774C65.2568 8.61774 64.9167 8.62228 64.5739 8.62954C64.4084 8.63226 64.242 8.6368 64.0756 8.64225C63.8774 8.6486 63.6774 8.65496 63.4773 8.66313C63.2491 8.67311 63.0209 8.6831 62.7936 8.6958C61.4324 7.78265 60.5967 6.25953 60.5731 4.60932C60.895 4.2063 62.6544 3.48104 65.5905 3.48104ZM78.0931 68.9583C77.9631 68.6642 77.8076 68.3846 77.6321 68.1186H94.3546L87.1241 72.8959L76.8174 75.8722L76.4673 75.8804C78.4513 74.2293 79.1751 71.41 78.0931 68.9583ZM59.1874 68.1186L56.6714 68.6424L54.7264 68.1186H59.1874ZM39.526 100.41L36.2717 105.202C36.0726 105.496 35.7707 105.694 35.4215 105.761C35.0733 105.827 34.7187 105.755 34.425 105.555L12.1504 90.4491C11.5448 90.0388 11.3866 89.2128 11.7976 88.6082L15.0528 83.8156C15.2519 83.5224 15.5529 83.3236 15.902 83.2573C15.9866 83.241 16.0712 83.2328 16.1548 83.2328C16.4185 83.2328 16.6758 83.3118 16.8986 83.4634L18.1016 84.2785C18.1016 84.2794 18.1025 84.2794 18.1025 84.2794L39.1732 98.5685C39.7788 98.9788 39.937 99.8057 39.526 100.41ZM102.254 71.3047C102.212 71.3346 102.172 71.3673 102.133 71.4018L91.0994 81.1578C87.9888 83.5932 84.479 85.3614 80.6682 86.4125L74.2487 88.1834C70.1151 89.3244 65.7196 89.5613 61.5378 88.8697C57.4625 88.1961 51.4285 87.4418 46.0847 88.6772C42.9895 89.3925 40.1634 91.168 38.1076 93.6369L21.6287 82.4622L29.6267 72.7661C32.6519 69.915 36.4881 68.2221 40.1616 68.1186H40.2325C41.3719 68.0996 42.5776 68.4345 43.8533 68.7912C44.1097 68.862 44.3652 68.9338 44.6216 69.0027L56.1658 72.1116C56.4304 72.1824 56.7078 72.1906 56.976 72.1343L72.0955 68.9873C72.7811 68.8457 73.5012 68.9846 74.0714 69.3704C74.4396 69.62 74.7269 69.9631 74.9024 70.3616C75.4207 71.5352 74.9324 72.9131 73.774 73.5086L68.6157 76.2353C67.9019 76.6129 67.5418 77.4299 67.7446 78.2105C67.9483 78.992 68.6602 79.5239 69.4695 79.513L77.1211 79.3478C77.2729 79.3442 77.423 79.3215 77.5675 79.2798L88.3489 76.1663C88.5189 76.1173 88.6798 76.0429 88.8271 75.9458L99.7039 68.7586C100.617 68.1958 101.832 67.7329 102.478 68.685C102.982 69.4257 102.994 70.7591 102.254 71.3047Z" fill="#3DD676"/>
<path d="M9.91642 155V152.75H3.97642V150.032H9.79042V147.782H3.97642V145.244H9.91642V142.994H1.42042V155H9.91642ZM20.0146 155V148.862C20.0146 147.17 19.0966 146.09 17.1886 146.09C15.7666 146.09 14.7046 146.774 14.1466 147.44V146.306H11.8606V155H14.1466V149.15C14.5246 148.628 15.2266 148.124 16.1266 148.124C17.0986 148.124 17.7286 148.538 17.7286 149.744V155H20.0146ZM23.4184 145.37C24.1744 145.37 24.7864 144.758 24.7864 144.002C24.7864 143.246 24.1744 142.652 23.4184 142.652C22.6804 142.652 22.0504 143.246 22.0504 144.002C22.0504 144.758 22.6804 145.37 23.4184 145.37ZM21.4744 158.528C23.5624 158.528 24.5704 157.214 24.5704 155.234V146.306H22.2844V155.234C22.2844 156.206 21.7984 156.656 21.0964 156.656C20.5744 156.656 20.2684 156.494 19.9264 156.206L19.2964 157.916C19.9264 158.348 20.3764 158.528 21.4744 158.528ZM30.8691 155.216C33.7491 155.216 35.4771 153.128 35.4771 150.644C35.4771 148.178 33.7491 146.09 30.8691 146.09C28.0071 146.09 26.2791 148.178 26.2791 150.644C26.2791 153.128 28.0071 155.216 30.8691 155.216ZM30.8691 153.182C29.4471 153.182 28.6551 152.012 28.6551 150.644C28.6551 149.294 29.4471 148.124 30.8691 148.124C32.2911 148.124 33.1011 149.294 33.1011 150.644C33.1011 152.012 32.2911 153.182 30.8691 153.182ZM36.8671 158.402C37.1551 158.474 37.7311 158.528 38.0011 158.528C39.4951 158.492 40.6471 158.06 41.2951 156.422L45.3811 146.306H42.9151L40.6471 152.354L38.3791 146.306H35.9311L39.4591 155.126L39.1351 155.864C38.9191 156.332 38.5231 156.494 37.9291 156.494C37.7131 156.494 37.4071 156.44 37.2091 156.35L36.8671 158.402ZM56.965 155V150.086L61.555 142.994H58.639L55.687 147.818L52.699 142.994H49.783L54.409 150.086V155H56.965ZM64.4082 155.216C67.2882 155.216 69.0162 153.128 69.0162 150.644C69.0162 148.178 67.2882 146.09 64.4082 146.09C61.5462 146.09 59.8182 148.178 59.8182 150.644C59.8182 153.128 61.5462 155.216 64.4082 155.216ZM64.4082 153.182C62.9862 153.182 62.1942 152.012 62.1942 150.644C62.1942 149.294 62.9862 148.124 64.4082 148.124C65.8302 148.124 66.6402 149.294 66.6402 150.644C66.6402 152.012 65.8302 153.182 64.4082 153.182ZM78.8661 155V146.306H76.5801V152.192C76.1841 152.696 75.4821 153.182 74.6001 153.182C73.6281 153.182 72.9981 152.786 72.9981 151.58V146.306H70.7121V152.48C70.7121 154.172 71.6121 155.216 73.5201 155.216C74.9421 155.216 75.9861 154.568 76.5801 153.902V155H78.8661ZM83.422 155V149.258C83.8 148.7 84.808 148.268 85.564 148.268C85.816 148.268 86.032 148.286 86.194 148.322V146.09C85.114 146.09 84.034 146.72 83.422 147.494V146.306H81.136V155H83.422ZM105.296 155V142.994H101.696L98.7798 150.248L95.8638 142.994H92.2817V155H94.8378V146.594L98.2218 155H99.3378L102.722 146.594V155H105.296ZM111.712 155.216C113.062 155.216 114.43 154.802 115.294 154.01L114.286 152.534C113.728 153.074 112.702 153.398 111.964 153.398C110.488 153.398 109.606 152.48 109.462 151.382H115.924V150.878C115.924 148.034 114.16 146.09 111.568 146.09C108.922 146.09 107.068 148.124 107.068 150.644C107.068 153.434 109.066 155.216 111.712 155.216ZM113.71 149.834H109.426C109.534 148.97 110.146 147.908 111.568 147.908C113.08 147.908 113.656 149.006 113.71 149.834ZM125.081 155V149.384C125.081 146.882 123.263 146.09 121.283 146.09C119.915 146.09 118.547 146.522 117.485 147.458L118.349 148.988C119.087 148.304 119.951 147.962 120.887 147.962C122.039 147.962 122.795 148.538 122.795 149.42V150.59C122.219 149.906 121.193 149.528 120.041 149.528C118.655 149.528 117.017 150.302 117.017 152.336C117.017 154.28 118.655 155.216 120.041 155.216C121.175 155.216 122.201 154.802 122.795 154.1V155H125.081ZM120.959 153.668C120.059 153.668 119.321 153.2 119.321 152.39C119.321 151.544 120.059 151.076 120.959 151.076C121.697 151.076 122.417 151.328 122.795 151.832V152.912C122.417 153.416 121.697 153.668 120.959 153.668ZM129.635 155V142.994H127.349V155H129.635Z" fill="black"/>
</svg>
