<svg width="110" height="110" viewBox="0 0 110 110" fill="none" xmlns="http://www.w3.org/2000/svg">
<path d="M54.8158 0C24.9658 0 0.723561 24.242 0.723561 53.9114C0.723561 63.3188 3.25635 72.3643 7.96003 80.6862L0 109.27L29.1265 101.491C37.6293 106.014 46.4939 108.546 54.8158 108.546C84.3042 108.546 109.27 83.5805 109.27 53.9112C109.27 24.242 84.847 0 54.8158 0ZM54.8158 104.928C46.8558 104.928 38.353 102.395 30.212 97.8728L29.4884 97.5109L5.06557 104.204L11.7591 80.1435L11.3972 79.4199C6.87437 71.6407 4.3418 62.7761 4.3418 53.9114C4.3418 26.232 26.9556 3.61824 54.8158 3.61824C82.8569 3.61824 105.652 26.232 105.652 53.9114C105.652 81.5908 82.3144 104.928 54.8158 104.928Z" fill="#52D884"/>
<path d="M54.8158 9.04547C30.0311 9.04547 9.76904 29.1265 9.76904 53.9112C9.76904 62.7759 12.3018 71.0978 16.8245 78.5151L17.548 79.4197L12.6637 96.6063L30.393 92.0834L31.2976 92.6261C38.7149 97.149 46.856 99.5007 54.8161 99.5007C79.7818 99.5007 100.225 79.0578 100.225 53.9112C100.225 29.1265 79.7816 9.04547 54.8158 9.04547ZM54.635 96.0635C47.3985 96.0635 39.9812 93.7118 33.1066 89.5508L30.9357 88.1035L17.7293 91.3599L21.3475 78.6961L19.9002 76.3444C15.5584 69.6507 13.3875 61.8715 13.3875 53.9114C13.3875 31.2976 32.0212 12.6639 54.8161 12.6639C77.7918 12.6639 96.6065 31.2976 96.6065 53.9114C96.6063 77.068 77.7915 95.8825 54.635 96.0635Z" fill="#52D884"/>
<path d="M81.9525 63.8615L70.5551 58.6151C68.9269 57.8916 67.2987 58.4343 66.2133 59.7006L61.8715 65.3089C58.6151 64.0426 49.5696 60.0625 44.3232 50.2932L48.3034 45.5895C49.208 44.5041 49.3888 43.0567 48.8461 41.7905L43.9616 30.2122C43.4188 28.9459 42.3334 28.0413 40.886 28.0413L37.4486 27.8604C36.0013 27.8604 34.3731 28.2223 33.2877 29.3078C31.6595 30.7551 28.584 33.8306 27.6794 37.9916C26.4131 43.9616 28.403 51.0172 33.4685 57.8918C36.544 62.2336 45.9514 75.0784 64.0424 80.1437C65.8514 80.6864 67.6606 80.8673 69.2888 80.8673C72.3643 80.8673 75.2588 79.9627 77.7915 78.5155C80.6862 76.7065 82.6761 73.631 83.3998 70.3745L83.9426 67.8417C84.3042 66.2133 83.3998 64.5851 81.9525 63.8615ZM79.6006 69.4696C79.0578 71.8214 77.6105 73.9925 75.6204 75.2588C72.5449 77.2488 68.9267 77.6105 64.9468 76.525C48.1221 71.8214 39.2574 59.7004 36.363 55.7202C32.0212 49.7503 30.212 43.5992 31.2974 38.7147C32.021 35.4584 34.3729 33.1064 35.8203 31.8401C36.1821 31.4782 36.7249 31.2974 37.2676 31.2974L40.8858 31.6593L45.7704 43.0567L41.4286 47.9413C40.705 48.8459 40.5239 50.293 41.0667 51.3787C47.0366 62.9569 57.8913 67.4798 61.1477 68.5652C62.414 68.9271 63.6805 68.5652 64.5851 67.4798L68.9269 61.6906L80.3243 66.9371L79.6006 69.4696Z" fill="#52D884"/>
</svg>
