<svg width="97" height="110" viewBox="0 0 97 110" fill="none" xmlns="http://www.w3.org/2000/svg">
<path d="M85.2876 0H1.62334C0.72621 0 0 0.726933 0 1.62309V88.4449C0 89.341 0.72621 90.0671 1.62334 90.0671C2.51964 90.0671 3.24585 89.341 3.24585 88.4449V3.24535H74.0342C78.5549 3.24535 82.2326 6.92253 82.2326 11.4425V30.8905C82.2326 31.7875 82.9597 32.5136 83.856 32.5136C84.7523 32.5136 85.4793 31.7875 85.4793 30.8905V11.4425C85.4793 8.23051 84.147 5.32612 82.0084 3.24535H85.2876C89.8082 3.24535 93.486 6.92253 93.486 11.4425V97.8242C93.486 102.344 89.8082 106.021 85.2876 106.021H82.0084C84.147 103.941 85.4793 101.036 85.4793 97.8242V37.382C85.4793 36.4859 84.7523 35.7598 83.856 35.7598C82.9597 35.7598 82.2326 36.4859 82.2326 37.382V97.8242C82.2326 102.344 78.5549 106.021 74.0342 106.021H3.24585V94.9364C3.24585 94.0403 2.51964 93.3133 1.62334 93.3133C0.72621 93.3133 0 94.0403 0 94.9364V107.644C0 108.54 0.72621 109.267 1.62334 109.267H85.2876C91.5983 109.267 96.7318 104.133 96.7318 97.8242V11.4425C96.7318 5.13355 91.5983 0 85.2876 0Z" fill="#52D884"/>
<path d="M29.6154 22.9918C28.7099 22.9918 28.2413 23.6295 27.8995 24.2597L25.4624 28.9014L23.0428 24.2639C22.7385 23.6712 22.2682 22.9918 21.3244 22.9918C20.5373 22.9918 20.0079 23.5136 20.0079 24.2897V36.4742C20.0079 37.1086 20.5623 37.5696 21.3244 37.5696C22.0873 37.5696 22.6409 37.1086 22.6409 36.4742V28.9173L24.3918 32.2785C24.632 32.7312 25.0147 32.9904 25.4424 32.9904C25.7075 32.9904 26.2019 32.8979 26.5296 32.2785L28.2989 28.9514V36.475C28.2989 37.1094 28.8525 37.5696 29.6154 37.5696C30.3783 37.5696 30.9319 37.1094 30.9319 36.475V24.2897C30.9319 23.5128 30.4024 22.9918 29.6154 22.9918Z" fill="#52D884"/>
<path d="M41.7642 25.4768C42.3778 25.4768 42.8405 24.935 42.8405 24.2155C42.8405 23.5061 42.3878 22.9918 41.7642 22.9918H35.1907C34.482 22.9918 33.9476 23.4619 33.9476 24.0863V36.475C33.9476 37.0986 34.482 37.5696 35.1907 37.5696H41.7642C42.3878 37.5696 42.8405 37.0552 42.8405 36.3458C42.8405 35.6264 42.3778 35.0845 41.7642 35.0845H36.5806V31.459H38.921C39.5338 31.459 39.9974 30.9563 39.9974 30.2903C39.9974 29.6025 39.5338 29.0848 38.921 29.0848H36.5806V25.4768H41.7642Z" fill="#52D884"/>
<path d="M46.2315 37.5696C46.9944 37.5696 47.548 37.1086 47.548 36.4742V29.2649L51.3274 36.5751L51.3333 36.5859C51.6793 37.2203 52.1954 37.5688 52.7865 37.5688C53.5494 37.5688 54.103 37.1086 54.103 36.4742V24.068C54.103 23.4336 53.5619 22.9909 52.7865 22.9909C52.0111 22.9909 51.47 23.4336 51.47 24.068V31.2556L47.8948 24.2639C47.5555 23.6028 47.1186 22.9918 46.2315 22.9918C45.3227 22.9918 44.9149 23.532 44.9149 24.068V36.4742C44.9149 37.1086 45.4686 37.5696 46.2315 37.5696Z" fill="#52D884"/>
<path d="M58.3803 22.9918C57.6057 22.9918 57.0638 23.4344 57.0638 24.068V33.1146C57.0638 36.0157 58.728 37.6805 61.6303 37.6805C64.5443 37.6805 66.2152 36.0157 66.2152 33.1146V24.068C66.2152 23.4444 65.6616 22.9918 64.8987 22.9918C64.1241 22.9918 63.5821 23.4344 63.5821 24.068V33.1146C63.5821 34.5343 62.9618 35.1954 61.6303 35.1954C60.3113 35.1954 59.6968 34.5343 59.6968 33.1146V24.068C59.6968 23.4344 59.1557 22.9918 58.3803 22.9918Z" fill="#52D884"/>
<path d="M24.7753 57.6444C24.0758 57.7336 23.5139 58.2647 23.3855 58.9583C22.0806 66.0067 26.061 73.0451 28.3414 76.3738L25.6124 77.1341C25.1572 77.2616 24.7795 77.5801 24.5794 78.0086C24.3785 78.4362 24.3743 78.9297 24.5677 79.3616C27.676 86.2949 34.382 90.2831 43.5442 90.7007V96.6671C43.5442 97.5632 44.2704 98.2901 45.1667 98.2901C46.0639 98.2901 46.7901 97.5632 46.7901 96.6671V90.7007C55.9523 90.2831 62.6583 86.2949 65.7666 79.3616C65.96 78.9297 65.9559 78.4362 65.7549 78.0086C65.554 77.5801 65.1771 77.2616 64.7219 77.1341L61.993 76.3738C64.2733 73.0451 68.2546 66.0067 66.9489 58.9583C66.8205 58.2647 66.2585 57.7336 65.559 57.6444C65.3155 57.6128 60.5097 57.0392 56.1524 59.5518C55.4454 52.9019 52.2921 48.9463 45.7846 46.2669C45.3894 46.1044 44.945 46.1044 44.5489 46.2669C38.0414 48.9463 34.8889 52.9019 34.1819 59.5518C29.8246 57.0392 25.0188 57.6128 24.7753 57.6444ZM26.4137 60.8114C28.2772 60.8264 31.884 61.2299 34.5012 63.8467C34.9656 64.311 35.6635 64.4494 36.2705 64.1985C36.8766 63.9476 37.2718 63.3557 37.2718 62.6996C37.2718 55.6162 39.3529 52.0957 45.1676 49.5315C50.9814 52.0957 53.0625 55.6162 53.0625 62.6996C53.0625 63.3557 53.4577 63.9476 54.0647 64.1985C54.6717 64.4503 55.3687 64.311 55.8331 63.8467C58.4311 61.2499 62.0522 60.8381 63.9215 60.8173C64.5043 68.4242 58.1051 76.1796 58.0376 76.2596C57.6832 76.6822 57.5673 77.2566 57.7308 77.7835C57.8933 78.3103 58.3136 78.718 58.8447 78.8664L61.9163 79.7217C59.0564 84.3967 53.7862 87.0944 46.7901 87.452V70.7026C46.7901 69.8064 46.0639 69.0803 45.1676 69.0803C44.2704 69.0803 43.5442 69.8064 43.5442 70.7026V87.452C36.5481 87.0944 31.2779 84.3967 28.4181 79.7217L31.4897 78.8664C32.0208 78.718 32.4393 78.3103 32.6036 77.7843C32.767 77.2583 32.6519 76.6839 32.2984 76.2613C32.23 76.1796 25.8267 68.4209 26.4137 60.8114Z" fill="#52D884"/>
</svg>
