<svg width="180" height="240" viewBox="0 0 180 240" fill="none" xmlns="http://www.w3.org/2000/svg">
<path d="M145.931 0H20.435C19.0893 0 18 1.0904 18 2.43464V132.667C18 134.012 19.0893 135.101 20.435 135.101C21.7795 135.101 22.8688 134.012 22.8688 132.667V4.86803H129.051C135.832 4.86803 141.349 10.3838 141.349 17.1638V46.3357C141.349 47.6812 142.44 48.7704 143.784 48.7704C145.128 48.7704 146.219 47.6812 146.219 46.3357V17.1638C146.219 12.3458 144.22 7.98917 141.013 4.86803H145.931C152.712 4.86803 158.229 10.3838 158.229 17.1638V146.736C158.229 153.516 152.712 159.032 145.931 159.032H141.013C144.22 155.911 146.219 151.554 146.219 146.736V56.073C146.219 54.7288 145.128 53.6396 143.784 53.6396C142.44 53.6396 141.349 54.7288 141.349 56.073V146.736C141.349 153.516 135.832 159.032 129.051 159.032H22.8688V142.405C22.8688 141.06 21.7795 139.97 20.435 139.97C19.0893 139.97 18 141.06 18 142.405V161.465C18 162.81 19.0893 163.9 20.435 163.9H145.931C155.397 163.9 163.098 156.2 163.098 146.736V17.1638C163.098 7.70032 155.397 0 145.931 0Z" fill="#52D884"/>
<path d="M62.4231 34.4876C61.0649 34.4876 60.362 35.4442 59.8492 36.3896L56.1936 43.3521L52.5642 36.3958C52.1077 35.5068 51.4023 34.4876 49.9866 34.4876C48.806 34.4876 48.0118 35.2704 48.0118 36.4346V54.7113C48.0118 55.6629 48.8435 56.3544 49.9866 56.3544C51.131 56.3544 51.9614 55.6629 51.9614 54.7113V43.3759L54.5877 48.4177C54.9479 49.0967 55.522 49.4856 56.1636 49.4856C56.5613 49.4856 57.3029 49.3468 57.7944 48.4177L60.4483 43.4272V54.7125C60.4483 55.6641 61.2787 56.3544 62.4231 56.3544C63.5674 56.3544 64.3978 55.6641 64.3978 54.7125V36.4346C64.3978 35.2692 63.6037 34.4876 62.4231 34.4876Z" fill="#52D884"/>
<path d="M80.6462 38.2153C81.5667 38.2153 82.2608 37.4025 82.2608 36.3233C82.2608 35.2592 81.5817 34.4876 80.6462 34.4876H70.7861C69.7231 34.4876 68.9214 35.1929 68.9214 36.1295V54.7125C68.9214 55.6479 69.7231 56.3544 70.7861 56.3544H80.6462C81.5817 56.3544 82.2608 55.5829 82.2608 54.5187C82.2608 53.4396 81.5667 52.6268 80.6462 52.6268H72.871V47.1885H76.3815C77.3007 47.1885 77.9961 46.4345 77.9961 45.4354C77.9961 44.4038 77.3007 43.6272 76.3815 43.6272H72.871V38.2153H80.6462Z" fill="#52D884"/>
<path d="M87.3472 56.3544C88.4915 56.3544 89.322 55.6629 89.322 54.7113V43.8973L94.9912 54.8626L94.9999 54.8789C95.5189 55.8305 96.2931 56.3532 97.1798 56.3532C98.3241 56.3532 99.1546 55.6629 99.1546 54.7113V36.102C99.1546 35.1504 98.3429 34.4864 97.1798 34.4864C96.0167 34.4864 95.205 35.1504 95.205 36.102V46.8834L89.8422 36.3959C89.3332 35.4042 88.6779 34.4877 87.3472 34.4877C85.984 34.4877 85.3724 35.298 85.3724 36.102V54.7113C85.3724 55.6629 86.2029 56.3544 87.3472 56.3544Z" fill="#52D884"/>
<path d="M105.57 34.4876C104.409 34.4876 103.596 35.1516 103.596 36.102V49.6719C103.596 54.0235 106.092 56.5207 110.445 56.5207C114.816 56.5207 117.323 54.0235 117.323 49.6719V36.102C117.323 35.1666 116.492 34.4876 115.348 34.4876C114.186 34.4876 113.373 35.1516 113.373 36.102V49.6719C113.373 51.8015 112.443 52.7931 110.445 52.7931C108.467 52.7931 107.545 51.8015 107.545 49.6719V36.102C107.545 35.1516 106.734 34.4876 105.57 34.4876Z" fill="#52D884"/>
<path d="M55.163 86.4667C54.1137 86.6005 53.2708 87.397 53.0782 88.4374C51.1209 99.01 57.0915 109.568 60.512 114.561L56.4187 115.701C55.7358 115.892 55.1693 116.37 54.8691 117.013C54.5677 117.654 54.5614 118.395 54.8516 119.042C59.514 129.442 69.573 135.425 83.3164 136.051V145.001C83.3164 146.345 84.4057 147.435 85.7501 147.435C87.0958 147.435 88.1851 146.345 88.1851 145.001V136.051C101.929 135.425 111.987 129.442 116.65 119.042C116.94 118.395 116.934 117.654 116.632 117.013C116.331 116.37 115.766 115.892 115.083 115.701L110.989 114.561C114.41 109.568 120.382 99.01 118.423 88.4374C118.231 87.397 117.388 86.6005 116.338 86.4667C115.973 86.4191 108.765 85.5588 102.229 89.3277C101.168 79.3528 96.4382 73.4194 86.6769 69.4004C86.084 69.1566 85.4174 69.1566 84.8234 69.4004C75.0621 73.4194 70.3334 79.3528 69.2728 89.3277C62.7369 85.5588 55.5282 86.4191 55.163 86.4667ZM57.6205 91.2171C60.4157 91.2397 65.826 91.8449 69.7518 95.7701C70.4484 96.4666 71.4952 96.6741 72.4057 96.2978C73.3149 95.9214 73.9077 95.0335 73.9077 94.0494C73.9077 83.4243 77.0293 78.1436 85.7514 74.2972C94.4721 78.1436 97.5938 83.4243 97.5938 94.0494C97.5938 95.0335 98.1866 95.9214 99.097 96.2978C100.008 96.6754 101.053 96.4666 101.75 95.7701C105.647 91.8749 111.078 91.2572 113.882 91.2259C114.756 102.636 105.158 114.269 105.056 114.389C104.525 115.023 104.351 115.885 104.596 116.675C104.84 117.465 105.47 118.077 106.267 118.3L110.874 119.583C106.585 126.595 98.6793 130.642 88.1851 131.178V106.054C88.1851 104.71 87.0958 103.62 85.7514 103.62C84.4057 103.62 83.3164 104.71 83.3164 106.054V131.178C72.8222 130.642 64.9168 126.595 60.6271 119.583L65.2345 118.3C66.0311 118.077 66.659 117.465 66.9053 116.676C67.1505 115.887 66.9779 115.026 66.4476 114.392C66.3451 114.269 56.7401 102.631 57.6205 91.2171Z" fill="#52D884"/>
<path d="M5.69071 232.5V226.101H10.2807C14.1687 226.101 16.3287 223.428 16.3287 220.296C16.3287 217.137 14.1957 214.491 10.2807 214.491H1.85671V232.5H5.69071ZM9.76771 222.726H5.69071V217.866H9.76771C11.2797 217.866 12.4137 218.784 12.4137 220.296C12.4137 221.781 11.2797 222.726 9.76771 222.726ZM20.3253 218.055C21.4593 218.055 22.3773 217.137 22.3773 216.003C22.3773 214.869 21.4593 213.978 20.3253 213.978C19.2183 213.978 18.2733 214.869 18.2733 216.003C18.2733 217.137 19.2183 218.055 20.3253 218.055ZM22.0533 232.5V219.459H18.6243V232.5H22.0533ZM31.5284 232.824C34.2014 232.824 35.8214 231.663 36.6854 230.448L34.4444 228.369C33.8234 229.233 32.8784 229.773 31.6904 229.773C29.6114 229.773 28.1534 228.234 28.1534 225.966C28.1534 223.698 29.6114 222.186 31.6904 222.186C32.8784 222.186 33.8234 222.672 34.4444 223.59L36.6854 221.484C35.8214 220.296 34.2014 219.135 31.5284 219.135C27.5054 219.135 24.6164 221.97 24.6164 225.966C24.6164 229.989 27.5054 232.824 31.5284 232.824ZM51.6711 232.5L46.3521 225.372L51.5091 219.459H47.2971L42.3561 225.264V214.491H38.9271V232.5H42.3561V229.152L43.9221 227.478L47.3781 232.5H51.6711ZM69.2215 232.5V225.129L76.1065 214.491H71.7325L67.3045 221.727L62.8225 214.491H58.4485L65.3875 225.129V232.5H69.2215ZM80.3862 232.824C84.7062 232.824 87.2982 229.692 87.2982 225.966C87.2982 222.267 84.7062 219.135 80.3862 219.135C76.0932 219.135 73.5012 222.267 73.5012 225.966C73.5012 229.692 76.0932 232.824 80.3862 232.824ZM80.3862 229.773C78.2532 229.773 77.0652 228.018 77.0652 225.966C77.0652 223.941 78.2532 222.186 80.3862 222.186C82.5192 222.186 83.7342 223.941 83.7342 225.966C83.7342 228.018 82.5192 229.773 80.3862 229.773ZM102.073 232.5V219.459H98.6441V228.288C98.0501 229.044 96.9971 229.773 95.6741 229.773C94.2161 229.773 93.2711 229.179 93.2711 227.37V219.459H89.8421V228.72C89.8421 231.258 91.1921 232.824 94.0541 232.824C96.1871 232.824 97.7531 231.852 98.6441 230.853V232.5H102.073ZM108.907 232.5V223.887C109.474 223.05 110.986 222.402 112.12 222.402C112.498 222.402 112.822 222.429 113.065 222.483V219.135C111.445 219.135 109.825 220.08 108.907 221.241V219.459H105.478V232.5H108.907ZM141.718 232.5V214.491H136.318L131.944 225.372L127.57 214.491H122.197V232.5H126.031V219.891L131.107 232.5H132.781L137.857 219.891V232.5H141.718ZM151.342 232.824C153.367 232.824 155.419 232.203 156.715 231.015L155.203 228.801C154.366 229.611 152.827 230.097 151.72 230.097C149.506 230.097 148.183 228.72 147.967 227.073H157.66V226.317C157.66 222.051 155.014 219.135 151.126 219.135C147.157 219.135 144.376 222.186 144.376 225.966C144.376 230.151 147.373 232.824 151.342 232.824ZM154.339 224.751H147.913C148.075 223.455 148.993 221.862 151.126 221.862C153.394 221.862 154.258 223.509 154.339 224.751ZM171.396 232.5V224.076C171.396 220.323 168.669 219.135 165.699 219.135C163.647 219.135 161.595 219.783 160.002 221.187L161.298 223.482C162.405 222.456 163.701 221.943 165.105 221.943C166.833 221.943 167.967 222.807 167.967 224.13V225.885C167.103 224.859 165.564 224.292 163.836 224.292C161.757 224.292 159.3 225.453 159.3 228.504C159.3 231.42 161.757 232.824 163.836 232.824C165.537 232.824 167.076 232.203 167.967 231.15V232.5H171.396ZM165.213 230.502C163.863 230.502 162.756 229.8 162.756 228.585C162.756 227.316 163.863 226.614 165.213 226.614C166.32 226.614 167.4 226.992 167.967 227.748V229.368C167.4 230.124 166.32 230.502 165.213 230.502ZM178.226 232.5V214.491H174.797V232.5H178.226Z" fill="black"/>
</svg>
