<svg width="120" height="110" viewBox="0 0 120 110" fill="none" xmlns="http://www.w3.org/2000/svg">
<path d="M114.095 55.8401H109.958C109.571 49.5606 108.039 43.4999 105.387 37.8022C104.983 36.9299 103.946 36.5523 103.072 36.9563C102.198 37.3611 101.819 38.3959 102.225 39.2682C104.661 44.5047 106.082 50.0717 106.464 55.8401H26.6055C25.6426 55.8401 24.8624 56.6189 24.8624 57.5802C24.8624 58.5415 25.6426 59.3203 26.6055 59.3203H114.095C114.977 59.3203 115.694 60.0364 115.694 60.9169V63.0409C115.694 63.9214 114.977 64.6376 114.095 64.6376H5.0856C4.2036 64.6376 3.48708 63.9214 3.48708 63.0409V60.9169C3.48708 60.0364 4.2036 59.3203 5.0856 59.3203H18.4793C19.4422 59.3203 20.2233 58.5415 20.2233 57.5802C20.2233 56.6189 19.4422 55.8401 18.4793 55.8401H12.7172C13.4855 44.2787 18.452 33.5233 26.8228 25.3885C34.8899 17.5495 45.3139 12.9348 56.4544 12.2032C56.4608 12.2032 56.4671 12.2041 56.4735 12.2032C56.9481 12.1723 57.4173 12.1487 57.8811 12.1315C57.9738 12.1287 58.0656 12.1242 58.1584 12.1215C58.3239 12.116 58.4885 12.1124 58.6512 12.1088C58.964 12.1033 59.2768 12.0979 59.5905 12.0979C60.007 12.0979 60.4234 12.106 60.8389 12.1169C60.9617 12.1206 61.0835 12.1242 61.2072 12.1278C61.5273 12.1387 61.8464 12.1551 62.1656 12.1723C62.3347 12.1814 62.5038 12.1905 62.6739 12.2014C76.9868 13.1399 90.155 20.5704 98.3494 32.4849C98.8941 33.2764 99.9798 33.4788 100.774 32.9342C101.567 32.3905 101.769 31.3067 101.224 30.5143C93.1602 18.7895 80.6094 11.1103 66.7374 9.12969C67.6067 7.78265 68.095 6.19689 68.095 4.5358C68.095 3.58997 67.6722 1.84627 64.8407 0.806041C63.4268 0.286834 61.5618 0 59.5905 0C57.6183 0 55.7533 0.286834 54.3394 0.806041C51.5079 1.84627 51.086 3.58997 51.086 4.5358C51.086 6.19236 51.5725 7.77539 52.4363 9.1197C41.9041 10.6074 32.1357 15.3674 24.3905 22.8941C15.3423 31.687 9.99661 43.3311 9.22282 55.8392H5.0856C2.28138 55.8401 0 58.1176 0 60.9169V63.0409C0 65.8412 2.28138 68.1186 5.0856 68.1186H23.8668C22.9293 68.7595 22.0309 69.4784 21.1898 70.2763L21.1553 70.3089C21.1016 70.3588 21.0507 70.4124 21.0043 70.4696L12.7272 80.5033C11.6888 79.8453 10.4594 79.6056 9.24646 79.838C7.98165 80.0795 6.88779 80.7984 6.16582 81.8622L2.9106 86.654C1.42211 88.8461 1.99678 91.8406 4.19087 93.3283L26.4655 108.434C27.2729 108.982 28.2058 109.267 29.1615 109.267C29.4652 109.267 29.7716 109.238 30.0771 109.18C31.341 108.938 32.4349 108.219 33.1569 107.155L36.4121 102.364C37.9006 100.171 37.3268 97.177 35.1327 95.6892L35.0054 95.603C36.5557 93.8466 38.6225 92.5876 40.8712 92.0684C45.6094 90.9728 51.1851 91.6781 54.9668 92.3035C59.6451 93.0769 64.5588 92.8127 69.177 91.5392L75.5965 89.7683C79.8729 88.5883 83.8082 86.6013 87.2944 83.8619C87.3208 83.841 87.3462 83.8201 87.3717 83.7974L98.3931 74.0532C100.272 72.6181 100.681 70.1328 100.033 68.1186H114.095C116.9 68.1186 119.181 65.8412 119.181 63.0419V60.9169C119.181 58.1176 116.9 55.8401 114.095 55.8401ZM59.5905 3.48104C62.5266 3.48104 64.286 4.2063 64.6079 4.60932C64.5843 6.26043 63.7477 7.78356 62.3865 8.69671C62.0437 8.67856 61.7055 8.66403 61.3681 8.65133C61.2545 8.64769 61.1408 8.64225 61.0272 8.63953C60.5407 8.625 60.0606 8.61774 59.5905 8.61774C59.2568 8.61774 58.9167 8.62228 58.5739 8.62954C58.4084 8.63226 58.242 8.6368 58.0756 8.64225C57.8774 8.6486 57.6774 8.65496 57.4773 8.66313C57.2491 8.67311 57.0209 8.6831 56.7936 8.6958C55.4324 7.78265 54.5967 6.25953 54.5731 4.60932C54.895 4.2063 56.6544 3.48104 59.5905 3.48104ZM72.0931 68.9583C71.9631 68.6642 71.8076 68.3846 71.6321 68.1186H88.3546L81.1241 72.8959L70.8174 75.8722L70.4673 75.8804C72.4513 74.2293 73.1751 71.41 72.0931 68.9583ZM53.1874 68.1186L50.6714 68.6424L48.7264 68.1186H53.1874ZM33.526 100.41L30.2717 105.202C30.0726 105.496 29.7707 105.694 29.4215 105.761C29.0733 105.827 28.7187 105.755 28.425 105.555L6.15036 90.4491C5.54478 90.0388 5.38657 89.2128 5.79756 88.6082L9.05278 83.8156C9.25191 83.5224 9.55289 83.3236 9.90205 83.2573C9.98661 83.241 10.0712 83.2328 10.1548 83.2328C10.4185 83.2328 10.6758 83.3118 10.8986 83.4634L12.1016 84.2785C12.1016 84.2794 12.1025 84.2794 12.1025 84.2794L33.1732 98.5685C33.7788 98.9788 33.937 99.8057 33.526 100.41ZM96.2535 71.3047C96.2117 71.3346 96.1717 71.3673 96.1326 71.4018L85.0994 81.1578C81.9888 83.5932 78.479 85.3614 74.6682 86.4125L68.2487 88.1834C64.1151 89.3244 59.7196 89.5613 55.5378 88.8697C51.4625 88.1961 45.4285 87.4418 40.0847 88.6772C36.9895 89.3925 34.1634 91.168 32.1076 93.6369L15.6287 82.4622L23.6267 72.7661C26.6519 69.915 30.4881 68.2221 34.1616 68.1186H34.2325C35.3719 68.0996 36.5776 68.4345 37.8533 68.7912C38.1097 68.862 38.3652 68.9338 38.6216 69.0027L50.1658 72.1116C50.4304 72.1824 50.7078 72.1906 50.976 72.1343L66.0955 68.9873C66.7811 68.8457 67.5012 68.9846 68.0714 69.3704C68.4396 69.62 68.7269 69.9631 68.9024 70.3616C69.4207 71.5352 68.9324 72.9131 67.774 73.5086L62.6157 76.2353C61.9019 76.6129 61.5418 77.4299 61.7446 78.2105C61.9483 78.992 62.6602 79.5239 63.4695 79.513L71.1211 79.3478C71.2729 79.3442 71.423 79.3215 71.5675 79.2798L82.3489 76.1663C82.5189 76.1173 82.6798 76.0429 82.8271 75.9458L93.7039 68.7586C94.6168 68.1958 95.8316 67.7329 96.4781 68.685C96.9819 69.4257 96.9937 70.7591 96.2535 71.3047Z" fill="#3DD676"/>
</svg>
