<svg width="273" height="287" viewBox="0 0 273 287" fill="none" xmlns="http://www.w3.org/2000/svg">
<path d="M136.224 0C91.4486 0 55.0853 36.363 55.0853 80.8672C55.0853 94.9782 58.8845 108.546 65.94 121.029L54 163.905L97.6898 152.236C110.444 159.02 123.741 162.819 136.224 162.819C180.456 162.819 217.905 125.371 217.905 80.8668C217.905 36.363 181.27 0 136.224 0ZM136.224 157.392C124.284 157.392 111.53 153.593 99.3179 146.809L98.2326 146.266L61.5984 156.307L71.6387 120.215L71.0958 119.13C64.3116 107.461 60.5127 94.1641 60.5127 80.8672C60.5127 39.3481 94.4334 5.42735 136.224 5.42735C178.285 5.42735 212.478 39.3481 212.478 80.8672C212.478 122.386 177.472 157.392 136.224 157.392Z" fill="#52D884"/>
<path d="M136.224 13.5682C99.0467 13.5682 68.6536 43.6897 68.6536 80.8668C68.6536 94.1638 72.4527 106.647 79.2367 117.773L80.322 119.13L72.9956 144.909L99.5895 138.125L100.946 138.939C112.072 145.723 124.284 149.251 136.224 149.251C173.673 149.251 204.337 118.587 204.337 80.8668C204.337 43.6897 173.672 13.5682 136.224 13.5682ZM135.952 144.095C125.098 144.095 113.972 140.568 103.66 134.326L100.404 132.155L80.5939 137.04L86.0213 118.044L83.8503 114.517C77.3376 104.476 74.0812 92.8072 74.0812 80.8671C74.0812 46.9464 102.032 18.9959 136.224 18.9959C170.688 18.9959 198.91 46.9464 198.91 80.8671C198.909 115.602 170.687 143.824 135.952 144.095Z" fill="#52D884"/>
<path d="M176.929 95.7923L159.833 87.9227C157.39 86.8373 154.948 87.6514 153.32 89.5509L146.807 97.9633C141.923 96.0639 128.354 90.0937 120.485 75.4398L126.455 68.3843C127.812 66.7561 128.083 64.5851 127.269 62.6857L119.942 45.3183C119.128 43.4188 117.5 42.0619 115.329 42.0619L110.173 41.7907C108.002 41.7907 105.56 42.3335 103.932 43.9617C101.489 46.1327 96.876 50.7459 95.5191 56.9874C93.6197 65.9423 96.6044 76.5258 104.203 86.8377C108.816 93.3504 122.927 112.618 150.064 120.216C152.777 121.03 155.491 121.301 157.933 121.301C162.546 121.301 166.888 119.944 170.687 117.773C175.029 115.06 178.014 110.447 179.1 105.562L179.914 101.762C180.456 99.3199 179.1 96.8776 176.929 95.7923ZM173.401 104.204C172.587 107.732 170.416 110.989 167.431 112.888C162.817 115.873 157.39 116.416 151.42 114.788C126.183 107.732 112.886 89.5505 108.544 83.5804C102.032 74.6254 99.3179 65.3989 100.946 58.0721C102.031 53.1876 105.559 49.6596 107.73 47.7602C108.273 47.2174 109.087 46.9461 109.901 46.9461L115.329 47.489L122.656 64.5851L116.143 71.9119C115.057 73.2688 114.786 75.4395 115.6 77.068C124.555 94.4354 140.837 101.22 145.722 102.848C147.621 103.391 149.521 102.848 150.878 101.22L157.39 92.536L174.486 100.406L173.401 104.204Z" fill="#52D884"/>
<path d="M27.0748 232.5L32.2048 214.491H27.8848L24.7528 227.505L21.3508 214.491H18.3538L14.9248 227.505L11.7658 214.491H7.4728L12.6298 232.5H16.7068L19.8388 220.134L22.9978 232.5H27.0748ZM46.19 232.5V223.239C46.19 220.701 44.813 219.135 41.951 219.135C39.818 219.135 38.198 220.161 37.361 221.16V214.491H33.932V232.5H37.361V223.725C37.955 222.942 39.008 222.186 40.331 222.186C41.816 222.186 42.761 222.753 42.761 224.562V232.5H46.19ZM60.8531 232.5V224.076C60.8531 220.323 58.1261 219.135 55.1561 219.135C53.1041 219.135 51.0521 219.783 49.4591 221.187L50.7551 223.482C51.8621 222.456 53.1581 221.943 54.5621 221.943C56.2901 221.943 57.4241 222.807 57.4241 224.13V225.885C56.5601 224.859 55.0211 224.292 53.2931 224.292C51.2141 224.292 48.7571 225.453 48.7571 228.504C48.7571 231.42 51.2141 232.824 53.2931 232.824C54.9941 232.824 56.5331 232.203 57.4241 231.15V232.5H60.8531ZM54.6701 230.502C53.3201 230.502 52.2131 229.8 52.2131 228.585C52.2131 227.316 53.3201 226.614 54.6701 226.614C55.7771 226.614 56.8571 226.992 57.4241 227.748V229.368C56.8571 230.124 55.7771 230.502 54.6701 230.502ZM68.6282 232.824C70.0592 232.824 70.9772 232.446 71.4902 231.987L70.7612 229.395C70.5722 229.584 70.0862 229.773 69.5732 229.773C68.8172 229.773 68.3852 229.152 68.3852 228.342V222.456H71.0312V219.459H68.3852V215.895H64.9292V219.459H62.7692V222.456H64.9292V229.26C64.9292 231.582 66.2252 232.824 68.6282 232.824ZM78.0753 232.824C81.6933 232.824 83.7183 231.015 83.7183 228.639C83.7183 223.374 75.9963 224.994 75.9963 223.05C75.9963 222.321 76.8063 221.754 78.0483 221.754C79.6413 221.754 81.1263 222.429 81.9093 223.266L83.2863 220.917C81.9903 219.891 80.2353 219.135 78.0213 219.135C74.5923 219.135 72.6753 221.052 72.6753 223.239C72.6753 228.369 80.4243 226.614 80.4243 228.774C80.4243 229.584 79.7223 230.178 78.2373 230.178C76.6173 230.178 74.6733 229.287 73.7283 228.396L72.2433 230.799C73.6203 232.068 75.8073 232.824 78.0753 232.824ZM97.5035 232.5V224.076C97.5035 220.323 94.7765 219.135 91.8065 219.135C89.7545 219.135 87.7025 219.783 86.1095 221.187L87.4055 223.482C88.5125 222.456 89.8085 221.943 91.2125 221.943C92.9405 221.943 94.0745 222.807 94.0745 224.13V225.885C93.2105 224.859 91.6715 224.292 89.9435 224.292C87.8645 224.292 85.4075 225.453 85.4075 228.504C85.4075 231.42 87.8645 232.824 89.9435 232.824C91.6445 232.824 93.1835 232.203 94.0745 231.15V232.5H97.5035ZM91.3205 230.502C89.9705 230.502 88.8635 229.8 88.8635 228.585C88.8635 227.316 89.9705 226.614 91.3205 226.614C92.4275 226.614 93.5075 226.992 94.0745 227.748V229.368C93.5075 230.124 92.4275 230.502 91.3205 230.502ZM108.357 232.824C111.705 232.824 114.135 230.313 114.135 225.966C114.135 221.619 111.705 219.135 108.357 219.135C106.764 219.135 105.333 219.837 104.334 221.106V219.459H100.905V237.468H104.334V230.826C105.387 232.176 106.818 232.824 108.357 232.824ZM107.277 229.773C106.17 229.773 104.901 229.098 104.334 228.288V223.671C104.901 222.834 106.17 222.186 107.277 222.186C109.248 222.186 110.571 223.725 110.571 225.966C110.571 228.234 109.248 229.773 107.277 229.773ZM124.098 232.824C127.446 232.824 129.876 230.313 129.876 225.966C129.876 221.619 127.446 219.135 124.098 219.135C122.505 219.135 121.074 219.837 120.075 221.106V219.459H116.646V237.468H120.075V230.826C121.128 232.176 122.559 232.824 124.098 232.824ZM123.018 229.773C121.911 229.773 120.642 229.098 120.075 228.288V223.671C120.642 222.834 121.911 222.186 123.018 222.186C124.989 222.186 126.312 223.725 126.312 225.966C126.312 228.234 124.989 229.773 123.018 229.773ZM147.908 232.824C153.362 232.824 157.331 228.936 157.331 223.509C157.331 218.082 153.362 214.194 147.908 214.194C142.481 214.194 138.512 218.082 138.512 223.509C138.512 228.936 142.481 232.824 147.908 232.824ZM147.908 229.422C144.587 229.422 142.454 226.857 142.454 223.509C142.454 220.134 144.587 217.596 147.908 217.596C151.229 217.596 153.389 220.134 153.389 223.509C153.389 226.857 151.229 229.422 147.908 229.422ZM172.685 232.5L167.366 225.372L172.523 219.459H168.311L163.37 225.264V214.491H159.941V232.5H163.37V229.152L164.936 227.478L168.392 232.5H172.685ZM176.091 218.055C177.225 218.055 178.143 217.137 178.143 216.003C178.143 214.869 177.225 213.978 176.091 213.978C174.984 213.978 174.039 214.869 174.039 216.003C174.039 217.137 174.984 218.055 176.091 218.055ZM177.819 232.5V219.459H174.39V232.5H177.819ZM193.963 232.5L188.644 225.372L193.801 219.459H189.589L184.648 225.264V214.491H181.219V232.5H184.648V229.152L186.214 227.478L189.67 232.5H193.963ZM201.639 232.824C203.664 232.824 205.716 232.203 207.012 231.015L205.5 228.801C204.663 229.611 203.124 230.097 202.017 230.097C199.803 230.097 198.48 228.72 198.264 227.073H207.957V226.317C207.957 222.051 205.311 219.135 201.423 219.135C197.454 219.135 194.673 222.186 194.673 225.966C194.673 230.151 197.67 232.824 201.639 232.824ZM204.636 224.751H198.21C198.372 223.455 199.29 221.862 201.423 221.862C203.691 221.862 204.555 223.509 204.636 224.751ZM234.217 232.5L227.278 214.491H222.472L215.506 232.5H219.88L221.014 229.449H228.736L229.843 232.5H234.217ZM227.683 226.074H222.067L224.875 218.325L227.683 226.074ZM248.03 232.5V223.293C248.03 220.755 246.653 219.135 243.791 219.135C241.658 219.135 240.065 220.161 239.228 221.16V219.459H235.799V232.5H239.228V223.725C239.795 222.942 240.848 222.186 242.198 222.186C243.656 222.186 244.601 222.807 244.601 224.616V232.5H248.03ZM263.855 232.5V214.491H260.399V221.133C259.373 219.81 257.915 219.135 256.376 219.135C253.055 219.135 250.598 221.727 250.598 225.993C250.598 230.34 253.082 232.824 256.376 232.824C257.942 232.824 259.373 232.122 260.399 230.826V232.5H263.855ZM257.429 229.773C255.485 229.773 254.135 228.234 254.135 225.993C254.135 223.725 255.485 222.186 257.429 222.186C258.59 222.186 259.832 222.807 260.399 223.671V228.288C259.832 229.152 258.59 229.773 257.429 229.773ZM69.8699 264V257.601H74.4599C78.3479 257.601 80.5079 254.928 80.5079 251.796C80.5079 248.637 78.3749 245.991 74.4599 245.991H66.0359V264H69.8699ZM73.9469 254.226H69.8699V249.366H73.9469C75.4589 249.366 76.5929 250.284 76.5929 251.796C76.5929 253.281 75.4589 254.226 73.9469 254.226ZM86.2325 264V245.991H82.8035V264H86.2325ZM100.892 264V255.576C100.892 251.823 98.1646 250.635 95.1946 250.635C93.1426 250.635 91.0906 251.283 89.4976 252.687L90.7936 254.982C91.9006 253.956 93.1966 253.443 94.6006 253.443C96.3286 253.443 97.4626 254.307 97.4626 255.63V257.385C96.5986 256.359 95.0596 255.792 93.3316 255.792C91.2526 255.792 88.7956 256.953 88.7956 260.004C88.7956 262.92 91.2526 264.324 93.3316 264.324C95.0326 264.324 96.5716 263.703 97.4626 262.65V264H100.892ZM94.7086 262.002C93.3586 262.002 92.2516 261.3 92.2516 260.085C92.2516 258.816 93.3586 258.114 94.7086 258.114C95.8156 258.114 96.8956 258.492 97.4626 259.248V260.868C96.8956 261.624 95.8156 262.002 94.7086 262.002ZM110.368 264.324C113.041 264.324 114.661 263.163 115.525 261.948L113.284 259.869C112.663 260.733 111.718 261.273 110.53 261.273C108.451 261.273 106.993 259.734 106.993 257.466C106.993 255.198 108.451 253.686 110.53 253.686C111.718 253.686 112.663 254.172 113.284 255.09L115.525 252.984C114.661 251.796 113.041 250.635 110.368 250.635C106.345 250.635 103.456 253.47 103.456 257.466C103.456 261.489 106.345 264.324 110.368 264.324ZM123.895 264.324C125.92 264.324 127.972 263.703 129.268 262.515L127.756 260.301C126.919 261.111 125.38 261.597 124.273 261.597C122.059 261.597 120.736 260.22 120.52 258.573H130.213V257.817C130.213 253.551 127.567 250.635 123.679 250.635C119.71 250.635 116.929 253.686 116.929 257.466C116.929 261.651 119.926 264.324 123.895 264.324ZM126.892 256.251H120.466C120.628 254.955 121.546 253.362 123.679 253.362C125.947 253.362 126.811 255.009 126.892 256.251ZM148.211 264.324C153.665 264.324 157.634 260.436 157.634 255.009C157.634 249.582 153.665 245.694 148.211 245.694C142.784 245.694 138.815 249.582 138.815 255.009C138.815 260.436 142.784 264.324 148.211 264.324ZM148.211 260.922C144.89 260.922 142.757 258.357 142.757 255.009C142.757 251.634 144.89 249.096 148.211 249.096C151.532 249.096 153.692 251.634 153.692 255.009C153.692 258.357 151.532 260.922 148.211 260.922ZM163.673 264V255.387C164.24 254.55 165.752 253.902 166.886 253.902C167.264 253.902 167.588 253.929 167.831 253.983V250.635C166.211 250.635 164.591 251.58 163.673 252.741V250.959H160.244V264H163.673ZM182.393 264V245.991H178.937V252.633C177.911 251.31 176.453 250.635 174.914 250.635C171.593 250.635 169.136 253.227 169.136 257.493C169.136 261.84 171.62 264.324 174.914 264.324C176.48 264.324 177.911 263.622 178.937 262.326V264H182.393ZM175.967 261.273C174.023 261.273 172.673 259.734 172.673 257.493C172.673 255.225 174.023 253.686 175.967 253.686C177.128 253.686 178.37 254.307 178.937 255.171V259.788C178.37 260.652 177.128 261.273 175.967 261.273ZM191.923 264.324C193.948 264.324 196 263.703 197.296 262.515L195.784 260.301C194.947 261.111 193.408 261.597 192.301 261.597C190.087 261.597 188.764 260.22 188.548 258.573H198.241V257.817C198.241 253.551 195.595 250.635 191.707 250.635C187.738 250.635 184.957 253.686 184.957 257.466C184.957 261.651 187.954 264.324 191.923 264.324ZM194.92 256.251H188.494C188.656 254.955 189.574 253.362 191.707 253.362C193.975 253.362 194.839 255.009 194.92 256.251ZM204.147 264V255.387C204.714 254.55 206.226 253.902 207.36 253.902C207.738 253.902 208.062 253.929 208.305 253.983V250.635C206.685 250.635 205.065 251.58 204.147 252.741V250.959H200.718V264H204.147Z" fill="black"/>
</svg>
